# xmcd CD database file
#
# Track frame offsets:
#	150
#	13063
#	23212
#	35762
#	58657
#	72433
#	82783
#	107979
#	120062
#	133524
#	148928
#	159792
#	173595
#	185226
#	207133
#	219510
#	233865
#	244934
#	256206
#	274031
#
# Disc length: 3908 seconds
#
# Revision: 1
# Processed by: cddbd v1.5.2PL0 Copyright (c) Steve Scherf et al.
# Submitted via: CDex 1.40Beta9
#
DISCID=190f4214
DTITLE=Foster and Allen - Sing The Country Hits
DYEAR=1900
DGENRE=Country
TTITLE0=You're My Best Friend
TTITLE1=Silver Threads and Golden needles
TTITLE2=Oh,Lonesome Me
TTITLE3=Annies Song lucille It's four in the morning
TTITLE4=a pub with no beer
TTITLE5=Hello mary Lou,Goodbye Heart
TTITLE6=A legend in my time The end of the world Can't help falling in love
TTITLE7=Your old love letters
TTITLE8=when it's springtime in the rockies the streets of laredo home on the range
TTITLE9=send me the pillow you dream on
TTITLE10=If The Whole World Stopped Loving
TTITLE11=The Little Shirt my Mother Made For Me
TTITLE12=Things
TTITLE13=South Of The Border The Wayward Wind Distant Drums
TTITLE14=The moonshiner
TTITLE15=He'll have To Go
TTITLE16=a Little bitty Tear
TTITLE17=Ramblin Rose
TTITLE18=You  Got Gold
TTITLE19=Snowbird Canadian Pacific early Morning Rain
EXTD=ID3G: 2
EXTT0=
EXTT1=
EXTT2=
EXTT3=
EXTT4=
EXTT5=
EXTT6=
EXTT7=
EXTT8=
EXTT9=
EXTT10=
EXTT11=
EXTT12=
EXTT13=
EXTT14=
EXTT15=
EXTT16=
EXTT17=
EXTT18=
EXTT19=
PLAYORDER=
